<svg width="200" height="80" viewBox="0 0 200 80" xmlns="http://www.w3.org/2000/svg">
  <defs>
    <linearGradient id="melfwareGradient3" x1="0%" y1="0%" x2="100%" y2="0%">
      <stop offset="0%" style="stop-color:#2563eb"/>
      <stop offset="33%" style="stop-color:#06b6d4"/>
      <stop offset="66%" style="stop-color:#8b5cf6"/>
      <stop offset="100%" style="stop-color:#10b981"/>
    </linearGradient>
    <radialGradient id="centerGlow" cx="50%" cy="50%" r="50%">
      <stop offset="0%" style="stop-color:#ffffff" stop-opacity="0.8"/>
      <stop offset="100%" style="stop-color:#2563eb" stop-opacity="0"/>
    </radialGradient>
  </defs>

  <!-- Abstract brain/AI shape -->
  <path d="M20 30 Q40 15 70 20 Q100 10 130 20 Q160 15 180 30 Q190 45 180 60 Q160 75 130 70 Q100 80 70 70 Q40 75 20 60 Q10 45 20 30 Z" fill="url(#melfwareGradient3)" opacity="0.2"/>
  <path d="M22 32 Q42 17 72 22 Q102 12 132 22 Q162 17 182 32 Q192 47 182 62 Q162 77 132 72 Q102 82 72 72 Q42 77 22 62 Q12 47 22 32 Z" fill="none" stroke="url(#melfwareGradient3)" stroke-width="1" opacity="0.6"/>

  <!-- Neural network nodes -->
  <circle cx="50" cy="25" r="3" fill="url(#melfwareGradient3)"/>
  <circle cx="80" cy="20" r="2" fill="url(#melfwareGradient3)"/>
  <circle cx="110" cy="25" r="3" fill="url(#melfwareGradient3)"/>
  <circle cx="140" cy="30" r="2" fill="url(#melfwareGradient3)"/>
  <circle cx="50" cy="55" r="2" fill="url(#melfwareGradient3)"/>
  <circle cx="80" cy="60" r="3" fill="url(#melfwareGradient3)"/>
  <circle cx="110" cy="55" r="2" fill="url(#melfwareGradient3)"/>
  <circle cx="140" cy="50" r="3" fill="url(#melfwareGradient3)"/>

  <!-- Neural connections -->
  <path d="M50 25 Q65 22 80 20 M80 20 Q95 18 110 25 M110 25 Q125 28 140 30 M50 55 Q65 58 80 60 M80 60 Q95 62 110 55 M110 55 Q125 52 140 50" stroke="url(#melfwareGradient3)" stroke-width="1" opacity="0.4" fill="none"/>

  <!-- MelfWare text -->
  <text x="25" y="45" font-family="Arial, sans-serif" font-size="18" font-weight="500" fill="url(#melfwareGradient3)">MelfWare</text>

  <!-- Central glow -->
  <circle cx="100" cy="40" r="15" fill="url(#centerGlow)" opacity="0.3"/>
</svg>